<svg width="15" height="15" viewBox="0 0 15 15" fill="none" xmlns="http://www.w3.org/2000/svg">
<path d="M13.6364 0.441176C12.8795 0.132353 12.0477 0 11.25 0C9.92045 0 8.48864 0.352941 7.5 1.32353C6.51136 0.352941 5.07955 0 3.75 0C2.42045 0 0.988636 0.352941 0 1.32353V14.25C0 14.4706 0.170455 14.6912 0.340909 14.6912C0.409091 14.6912 0.443182 14.6471 0.511364 14.6471C1.43182 14.0735 2.76136 13.6765 3.75 13.6765C5.07955 13.6765 6.51136 14.0294 7.5 15C8.42045 14.25 10.0909 13.6765 11.25 13.6765C12.375 13.6765 13.5341 13.9412 14.4886 14.6029C14.5568 14.6471 14.5909 14.6471 14.6591 14.6471C14.8295 14.6471 15 14.4265 15 14.2059V1.32353C14.5909 0.926471 14.1477 0.661765 13.6364 0.441176ZM13.6364 12.3529C12.8864 12.0441 12.0682 11.9118 11.25 11.9118C10.0909 11.9118 8.42045 12.4853 7.5 13.2353V3.08824C8.42045 2.33824 10.0909 1.76471 11.25 1.76471C12.0682 1.76471 12.8864 1.89706 13.6364 2.20588V12.3529Z" fill="#00B0FF"/>
<path d="M11.2501 5.29411C11.8501 5.29411 12.4296 5.37352 12.9546 5.52352V4.18235C12.416 4.04999 11.8364 3.97058 11.2501 3.97058C10.091 3.97058 9.04098 4.22646 8.18188 4.70293V6.16764C8.95234 5.60293 10.0228 5.29411 11.2501 5.29411Z" fill="#00B0FF"/>
<path d="M8.18188 7.04998V8.51469C8.95234 7.94998 10.0228 7.64116 11.2501 7.64116C11.8501 7.64116 12.4296 7.72057 12.9546 7.87057V6.52939C12.416 6.39704 11.8364 6.31763 11.2501 6.31763C10.091 6.31763 9.04098 6.58233 8.18188 7.04998Z" fill="#00B0FF"/>
<path d="M11.2501 8.67352C10.091 8.67352 9.04098 8.92941 8.18188 9.40588V10.8706C8.95234 10.3059 10.0228 9.99705 11.2501 9.99705C11.8501 9.99705 12.4296 10.0765 12.9546 10.2265V8.88529C12.416 8.74411 11.8364 8.67352 11.2501 8.67352Z" fill="#00B0FF"/>
</svg>
