<svg width="20" height="20" viewBox="0 0 20 20" fill="none" xmlns="http://www.w3.org/2000/svg">
<path d="M3.6178 7.03871C3.6178 8.63881 4.25343 10.1734 5.38487 11.3048C6.51631 12.4362 8.05088 13.0719 9.65097 13.0719C11.2511 13.0719 12.7856 12.4362 13.9171 11.3048C15.0485 10.1734 15.6842 8.63881 15.6842 7.03871C15.6842 5.43861 15.0485 3.90405 13.9171 2.77261C12.7856 1.64117 11.2511 1.00553 9.65097 1.00553C8.05088 1.00553 6.51631 1.64117 5.38487 2.77261C4.25343 3.90405 3.6178 5.43861 3.6178 7.03871Z" stroke="#00B0FF" stroke-width="2" stroke-linecap="round" stroke-linejoin="round"/>
<path d="M9.65107 13.0719L13.0699 18.9945L14.6767 15.7436L18.2946 15.9769L14.8758 10.0553M4.42433 10.0553L1.00553 15.9779L4.62343 15.7436L6.23026 18.9935L9.64906 13.0719" stroke="#00B0FF" stroke-width="2" stroke-linecap="round" stroke-linejoin="round"/>
</svg>
